<svg width="112" height="33" viewBox="0 0 112 33" fill="none" xmlns="http://www.w3.org/2000/svg">
    <g clip-path="url(#clip0)">
        <path d="M40.4246 18.8721L43.8143 24.6615H48.56L43.1885 15.9378L48.3253 10.4656H43.7622L38.6254 15.832V5.04634H34.6099V24.6615H38.6254V20.8019L40.4246 18.8721ZM52.2402 4.12109C50.9626 4.12109 50.076 5.07277 50.076 6.39455C50.076 7.71632 50.9626 8.668 52.2402 8.668C53.5179 8.668 54.4045 7.71632 54.4045 6.39455C54.4045 5.07277 53.5179 4.12109 52.2402 4.12109ZM54.248 24.6615V10.4392H50.2325V24.6615H54.248ZM74.8931 24.6615L80.0038 10.4392H76.0404L72.9636 20.6168L69.8867 10.4392H65.9494L62.9247 20.6168L59.7957 10.4392L55.7019 10.4656L60.8387 24.6615H64.8542L67.8529 15.2769L70.8776 24.6615H74.8931ZM83.3897 4.12109C82.112 4.12109 81.2255 5.07277 81.2255 6.39455C81.2255 7.71632 82.112 8.668 83.3897 8.668C84.6674 8.668 85.5539 7.71632 85.5539 6.39455C85.5539 5.07277 84.6674 4.12109 83.3897 4.12109ZM85.3975 24.6615V10.4392H81.3819V24.6615H85.3975ZM95.2736 8.21859C95.8473 8.21859 96.4991 8.43008 97.0206 8.82661L98.4548 5.86584C97.4639 5.20495 96.0819 4.86129 94.7782 4.86129C91.9621 4.86129 89.6153 6.55316 89.6153 9.72542V11.0736H87.7379V13.9022H89.6153V24.6615H93.6048V13.9022H96.9163V11.0736H93.6048V9.88403C93.6048 8.7473 94.3349 8.21859 95.2736 8.21859ZM111.918 10.4392H107.903L104.591 20.2203L100.915 10.4392H96.7688L102.584 24.3707L102.192 25.1637C101.801 26.0097 101.175 26.4326 100.341 26.4326C99.6892 26.4326 99.1416 26.1947 98.5158 25.666L96.821 28.6003C97.9683 29.552 99.1416 29.975 100.628 29.975C103.053 29.975 104.774 28.759 105.765 26.2476L111.918 10.4392Z" fill="#A8B1BE"/>
        <path d="M26.6639 21.4049C21.6456 26.4924 13.4804 26.4924 8.4622 21.4049C3.44397 16.3172 3.44397 8.03919 8.4622 2.95157L5.42888 -0.124023C-1.27284 6.67035 -1.27284 17.6861 5.42888 24.4801C12.1306 31.2742 22.9961 31.2744 29.6975 24.4801L26.6639 21.4049Z" fill="#A8B1BE"/>
        <path d="M21.9465 20.8978C22.5403 20.591 22.531 19.3665 21.926 18.1625C21.3209 16.9586 20.3489 16.2312 19.7553 16.538C19.1616 16.8447 19.1707 18.0693 19.7758 19.2733C20.3808 20.4773 21.3527 21.2045 21.9465 20.8978Z" fill="#A8B1BE"/>
        <path d="M8.9635 7.73648C8.66096 8.33845 9.37838 9.32375 10.5659 9.93721C11.7534 10.5507 12.9614 10.56 13.2639 9.958C13.5665 9.35604 12.849 8.37074 11.6615 7.75727C10.474 7.14381 9.26604 7.1345 8.9635 7.73648Z" fill="#A8B1BE"/>
        <path d="M10.7367 19.0978C11.2078 19.5756 12.3538 19.1885 13.2964 18.2331C14.239 17.2779 14.6211 16.1161 14.15 15.6383C13.6788 15.1605 12.5328 15.5476 11.5902 16.5029C10.6477 17.4582 10.2655 18.62 10.7367 19.0978Z" fill="#A8B1BE"/>
        <path d="M16.0547 21.8446C16.7129 21.9504 17.4154 20.954 17.6238 19.6194C17.8323 18.2849 17.4677 17.1173 16.8095 17.0116C16.1513 16.9059 15.4488 17.9022 15.2403 19.2367C15.0319 20.5715 15.3965 21.7391 16.0547 21.8446Z" fill="#A8B1BE"/>
        <path d="M8.0293 13.7077C8.13346 14.375 9.28505 14.7447 10.6015 14.5336C11.9179 14.3224 12.9006 13.6102 12.7964 12.9429C12.6923 12.2756 11.5407 11.9058 10.2243 12.117C8.90787 12.3282 7.92514 13.0404 8.0293 13.7077Z" fill="#A8B1BE"/>
    </g>
    <defs>
        <clipPath id="clip0">
            <rect width="112" height="33" fill="white"/>
        </clipPath>
    </defs>
</svg>