<svg width="295" height="86" viewBox="0 0 295 86" fill="none" xmlns="http://www.w3.org/2000/svg">
    <g clip-path="url(#clip0)">
        <path d="M106.476 49.1814L115.404 64.2688H127.904L113.756 41.5343L127.286 27.2736H115.267L101.737 41.2587V13.1506H91.1601V64.2688H101.737V54.2105L106.476 49.1814ZM137.597 10.7394C134.232 10.7394 131.897 13.2195 131.897 16.6641C131.897 20.1087 134.232 22.5889 137.597 22.5889C140.963 22.5889 143.298 20.1087 143.298 16.6641C143.298 13.2195 140.963 10.7394 137.597 10.7394ZM142.886 64.2688V27.2047H132.309V64.2688H142.886ZM197.263 64.2688L210.724 27.2047H200.285L192.181 53.7283L184.077 27.2047H173.706L165.739 53.7283L157.498 27.2047L146.715 27.2736L160.245 64.2688H170.822L178.72 39.812L186.687 64.2688H197.263ZM219.643 10.7394C216.277 10.7394 213.942 13.2195 213.942 16.6641C213.942 20.1087 216.277 22.5889 219.643 22.5889C223.008 22.5889 225.343 20.1087 225.343 16.6641C225.343 13.2195 223.008 10.7394 219.643 10.7394ZM224.931 64.2688V27.2047H214.354V64.2688H224.931ZM250.944 21.4177C252.455 21.4177 254.172 21.9688 255.546 23.0022L259.323 15.2863C256.713 13.564 253.073 12.6684 249.639 12.6684C242.222 12.6684 236.041 17.0775 236.041 25.3446V28.8581H231.096V36.2296H236.041V64.2688H246.549V36.2296H255.271V28.8581H246.549V25.7579C246.549 22.7956 248.472 21.4177 250.944 21.4177ZM294.785 27.2047H284.209L275.486 52.6949L265.802 27.2047H254.882L270.198 63.511L269.168 65.5778C268.137 67.7823 266.489 68.8846 264.291 68.8846C262.574 68.8846 261.132 68.2646 259.484 66.8867L255.02 74.5338C258.042 77.0139 261.132 78.1162 265.047 78.1162C271.434 78.1162 275.967 74.9472 278.577 68.4024L294.785 27.2047Z" fill="#F2F2F2"/>
        <path d="M70.2308 55.7821C57.0129 69.0404 35.5065 69.0404 22.2888 55.7821C9.07117 42.5233 9.07117 20.9502 22.2888 7.69155L14.2993 -0.323631C-3.35258 17.3829 -3.35258 46.0905 14.2993 63.7963C31.9511 81.5021 60.57 81.5026 78.2211 63.7963L70.2308 55.7821Z" fill="#F2F2F2"/>
        <path d="M57.8053 54.4616C59.3692 53.6622 59.3448 50.4709 57.7513 47.3333C56.1574 44.1958 53.5974 42.3003 52.0339 43.0996C50.4699 43.899 50.4939 47.0905 52.0878 50.2282C53.6812 53.3658 56.2413 55.261 57.8053 54.4616Z" fill="#F2F2F2"/>
        <path d="M23.6095 20.1601C22.8126 21.7289 24.7022 24.2966 27.8301 25.8953C30.958 27.4941 34.1396 27.5183 34.9364 25.9495C35.7334 24.3808 33.8437 21.813 30.7159 20.2143C27.588 18.6156 24.4063 18.5913 23.6095 20.1601Z" fill="#F2F2F2"/>
        <path d="M28.2796 49.7695C29.5205 51.0146 32.5391 50.0058 35.0218 47.5159C37.5044 45.0266 38.511 41.9989 37.27 40.7537C36.029 39.5086 33.0105 40.5174 30.5278 43.007C28.0452 45.4966 27.0386 48.5243 28.2796 49.7695Z" fill="#F2F2F2"/>
        <path d="M42.287 56.9288C44.0207 57.2043 45.8712 54.6077 46.4201 51.1298C46.9691 47.6519 46.0089 44.609 44.2753 44.3336C42.5416 44.0582 40.6911 46.6545 40.1421 50.1325C39.593 53.6108 40.5533 56.6537 42.287 56.9288Z" fill="#F2F2F2"/>
        <path d="M21.1488 35.7232C21.4231 37.4623 24.4563 38.4258 27.9237 37.8755C31.391 37.3251 33.9794 35.4691 33.7051 33.7301C33.4307 31.991 30.3975 31.0275 26.9302 31.5778C23.4629 32.1282 20.8744 33.9842 21.1488 35.7232Z" fill="#F2F2F2"/>
    </g>
    <defs>
        <clipPath id="clip0">
            <rect width="295" height="86" fill="white"/>
        </clipPath>
    </defs>
</svg>
